<?xml version="1.0" encoding="UTF-8"?><svg id="Layer_1" xmlns="http://www.w3.org/2000/svg" viewBox="0 0 273.75 171.37"><defs><style>.cls-1{fill:#303030;}.cls-2{fill:#ededee;}</style></defs><path class="cls-1" d="M264.87,86.69c-.44-1.06,1.48-3.07,2.36-3.73l6.52-4.71-7.2-3.67c-18.54-9.44-35.08-2.47-36.23-1.96-6.66,2.9-15.86,5.07-18.41,3.53-.08-.05-.19-.12-.24-.71-.33-4.38,12.39-10.07,23.99-12.24l4.34-.81-.51-7.14c7.96-13.7,5.13-22.89,2.29-27.55,2.46-2.7,6.09-4.48,7.57-5.02l2.06-.73,.84-2.01c1.93-4.64,.98-7.94-.17-9.9-2.51-4.29-7.45-5.09-8.42-5.21l-.43-.05-.43,.02c-2.44,.14-8.65,2.06-15.41,16.41-11.37,1.73-19.72,5.49-25.44,11.46-5.43,5.66-7.34,12.04-8.87,17.16-.71,2.36-1.37,4.58-2.19,5.88-1.97,3.12-4.21,4.15-5.76,4.47-2.04-.12-4.12-.91-3.22-3.84,5.06-8.21,9.35-14.58,9.94-15.46,1.41-1.88,5.38-7.78,3.73-13.01-.11-.34-.24-.67-.39-.99,.74,.16,1.45,.25,2.15,.25,3.62,0,6.76-2.18,9.72-6.61,1.92-2.88,3.77-6.3,2.92-9.83-.72-3.02-2.97-4.59-4.6-5.51-4.89-2.77-10.24-1.98-13.97,2.05-1.47,1.51-5.86,6.49-5.24,11.58,.14,1.14,.52,2.2,1.1,3.14-1.93-.12-3.78,.32-5.45,1.33-4.15,2.5-5.61,7.58-6.01,9.42-.37,.98-1.56,4.05-3.29,7.89,4.12-11,6.82-24.08,3.84-36.42l-.39-1.6-1.27-1.05c-1.51-1.25-4.25-2.17-7.4-1-4.37,1.63-10.49,7.26-16.97,34.08-1.38-.4-2.63-.58-3.37-.69l-1.24-.18-1.17,.43c-3.35,1.23-6.07,3.05-8.3,5.17-.03-.3-.05-.6-.09-.89l-.22-1.9-1.44-1.25c-1.87-1.62-6.38-3.7-11.51-1.69v-6.48l-5.99,1.32c-.1,.02-1.24,.27-3.23,.77,1.01-2.13,1.7-3.47,1.87-3.78,1.81-3.15,3.62-7.6,2.13-11.11-.79-1.85-2.38-3.19-4.35-3.68-5.74-1.41-10.9,3.33-13.12,8.81-.65,1.27-3.78,7.46-7.28,15.74-.32,.1-.64,.21-.95,.31,1.97-7.42-1.74-17.97-9.3-26.13l-.21-.21C72.19-.77,56.13-1.03,46.58,4.46c-7.56,4.35-10.85,12.02-8.81,20.48,2.03,8.63,5.16,16.51,8.47,24.86,.61,1.53,1.23,3.09,1.84,4.67-4.17,2.38-8.06,4.84-11.58,7.33-15.83,11.17-26.7,24.03-32.33,38.22-5.26,13.26-5.55,27.16-.86,40.19,4.27,11.87,12.85,19.54,23.54,21.06,1.27,.18,2.56,.27,3.85,.27,11.5,0,23.4-7.12,32.5-19.64,8.04-11.06,12.23-21.64,12.96-33.37l.17-.11,16-1.03-4.34,12.88-.1,.34c-1.36,5.28-2.6,7.9-3.35,9.13l-2.63-1.04-4.47,13.85h27.93l.17-1.47,2.95-6.88c1.49,3.28,4.91,10.16,19.85,6.69l-15.98,30.47,87.34-76.08c4.15,.86,6.08,2.6,6.41,2.92l3.22,4.26,3.43-3.43c.69-.07,1.86-.03,3.12,.1,6.85,13.51,27.32,11.92,28.24,11.84l.18-.02c13.05-1.61,20.08-4.63,22.79-9.79,2.65-5.05,.1-9.94-1.42-12.87-.32-.61-.62-1.19-.8-1.62Z"/><g><path class="cls-2" d="M111.2,72.01c-17.77-2.08,5.77-24.93,6.23-27.01,.46-2.08,.23-4.62-3.23-4.39,0,0-27.47,30.01-7.39,37.63,17.7,4.54,26.09-25.85,24.47-39.47,0,0-3.46-3-8.08,0,0,0,4,32.09-12,33.24Z"/><path class="cls-2" d="M149.89,71.76c1.2,5.46,5.62,7.98,19.25-7.49,0,0-.46,9.46,8.66,4.39,0,0-8.31-1.62-1.96-12.12,6.35-10.5,12-18.81,12-18.81,0,0,6.81-8.89,.58-10.85-6.23-1.96-7.85,6.93-7.85,6.93,0,0-11.89,32.55-23.08,32.66,0,0-3.54,.81-2.92-2.77,0,0,23.47-31.86,17.01-58.63,0,0-10.61-8.77-21.46,55.63,0,0-.6,3.27-.61,6.78-3.95,2.94-12.81,8.16-11.55-5.17,0,0,1.15-12.47,10.39-15,0,0,10.62-6.93-2.08-8.77-13.85,5.08-14.77,23.32-14.77,23.32,0,0-1.13,26.53,18.41,9.91Zm17.62-56.46c10.66,.5-12,40.94-12,40.94,0,0,2-39.4,12-40.94Z"/><path class="cls-2" d="M112.35,93.71l-17.77,8.31,4.77-.31-6.69,19.85c-3.85,14.91-7.68,13.39-7.68,13.39l-.77,2.39h16.76l.31-2.69c-4.54-.15-2-4.77-2-4.77l13.08-36.17Z"/><path class="cls-2" d="M192.57,20.17c4.5,2.77,6.93,2.54,10.39-2.65,3.46-5.19,2.65-6.81,0-8.31-2.65-1.5-5.54-1.5-7.96,1.15,0,0-6.93,7.04-2.42,9.81Z"/><path class="cls-2" d="M140.98,109.12c2.02-13.91-7.79-14.49-7.79-14.49-5.83-.46-11.43,10.62-14.25,16.51-2.83,5.89-10.79,25.39-.23,25.33,10.56-.06,20.26-13.45,22.28-27.35Zm-20.14,20.03c-2.08-.12-2.78-7.58,1.89-16.58,0,0,4.72-10.66,8.75-9.5,4.02,1.15,2.76,8.19-1.17,16.97-3.92,8.77-7.39,9.23-9.46,9.12Z"/><path class="cls-2" d="M264.32,78.7c-16.93-8.62-32.01-1.84-32.01-1.84,0,0-24.62,10.77-25.55-1.32-.92-12.1,28.01-17.47,28.01-17.47l-.31-4.29c11.08-17.85,1.23-26.16,1.23-26.16,3.39-6.77,12-9.85,12-9.85,3.08-7.39-4.62-8.31-4.62-8.31,0,0-5.54,.31-12.31,16.01-33.86,4-30.47,24.32-35.7,32.61-5.23,8.3-12.62,6.79-12.62,6.79l-5.85,13.85-106.99,10.65c-1.4-6.66-3.55-13.65-6.02-21.27-.93-2.86-1.84-5.57-2.73-8.18,6.54-3.68,13.95-7.28,22.35-10.75l11.01-4.01c-4.97,13.15-9.18,28.44-6.05,36.79,0,0,2.08,6.46,12,0-4.91,.46-8.43-1.27-3.17-21.64,1.7-6.6,3.8-12.85,5.86-18.3l15.2-5.54v-3.46s-5.07,1.11-12.98,3.38c3.41-8.26,6.23-13.6,6.23-13.6,0,0,3.98-6.87,.92-7.62s-6.18,2.77-7.44,6.06c0,0-3.94,7.61-8.11,17.7-10.92,3.47-24.66,8.48-37.87,15.12-6.53-18.51-11.27-29.91-9.77-36.28,1.85-7.85,27.64-11.91,26.78,11.54,0,0-1.15,10.39,6.69,9.23,7.85-1.15,6.67-15.24-3.38-26.09C65.9-.25,38.17,5.26,42.58,23.53c2.64,11.22,7.4,21.6,11.65,32.89-5.17,2.78-10.21,5.82-14.88,9.12C7.95,87.71-.36,115.18,7.95,138.26c8.31,23.08,33.47,24.93,51.25,.46,12.22-16.82,13.86-31.13,10.84-47.21l97.02-.5-44.63,66.79,75.72-68.02c8.31,.92,11.7,4.92,11.7,4.92,1.85-1.85,9.54-.31,9.54-.31,4.03,13.14,24.32,11.39,24.32,11.39,27.39-3.39,18.78-12.31,16.62-17.48-2.15-5.17,4-9.61,4-9.61ZM61.51,116.56c-9.95,39.77-47.32,19.62-45.94,0,1.11-15.71,10.5-35.7,40.85-54.07,2.85,8.34,5.2,17.32,6.1,27.56l-15.81,1.57,15.93-.08c.55,7.56,.3,15.81-1.13,25.01Zm128.65-29.22c-4.58,5.1-9.46,1.96-9.46,1.96,0,0-4.17-3.38,1.39-9.23,4.69-4.94,8.66-2.42,8.66-2.42,0,0,4.89,3.6-.58,9.7Zm18.04-46.84c11.89-11.66,19.51-8.89,20.78-7.85s8.19,6.81-3.35,18.93c-11.54,12.12-19.62,13.5-23.43,10.04,0,0-5.89-9.46,6-21.12Zm49.05,49.75c-.58,5.19-5.54,9.81-15.35,9.58-9.81-.23-21.35-5.08-19.04-11.51,0,0,1.73-10.42,17.66-9.15,12.89,1.03,17.31,5.89,16.74,11.08Z"/></g></svg>